<svg width="20" height="20" viewBox="0 0 20 20" fill="none" xmlns="http://www.w3.org/2000/svg">
<path d="M19.1667 6.66667C18.7067 6.66667 18.3333 7.04 18.3333 7.5V17.5C18.3333 17.9596 17.9596 18.3333 17.5 18.3333H2.5C2.04042 18.3333 1.66667 17.9596 1.66667 17.5V2.5C1.66667 2.04042 2.04042 1.66667 2.5 1.66667H12.5C12.96 1.66667 13.3333 1.29333 13.3333 0.833333C13.3333 0.373333 12.96 0 12.5 0H2.5C1.12125 0 0 1.12125 0 2.5V17.5C0 18.8787 1.12125 20 2.5 20H17.5C18.8787 20 20 18.8787 20 17.5V7.5C20 7.04 19.6267 6.66667 19.1667 6.66667Z" fill="#7156FB"/>
<path d="M6.66626 10.143V12.5001C6.66626 12.9601 7.03959 13.3334 7.49959 13.3334H9.85667C10.0775 13.3334 10.2896 13.2455 10.4458 13.0892L19.5112 4.02383C20.1612 3.37383 20.1612 2.31674 19.5112 1.66674L18.3329 0.488408C17.6833 -0.161175 16.6262 -0.161175 15.9758 0.488408L6.91043 9.55383C6.75418 9.71008 6.66626 9.92216 6.66626 10.143V10.143ZM17.1537 1.66633L18.3329 2.84549L17.1542 4.02424L15.975 2.84508L17.1537 1.66633ZM8.33292 10.488L14.7971 4.02299L15.9762 5.20216L9.51126 11.6667H8.33292V10.488Z" fill="#7156FB"/>
</svg>
