<svg width="21" height="20" viewBox="0 0 21 20" fill="none" xmlns="http://www.w3.org/2000/svg">
<path d="M15.7517 20C15.4228 20 15.0937 19.8997 14.8048 19.6983L10.479 16.6852C10.3855 16.62 10.2598 16.62 10.166 16.6852L5.84041 19.6983C5.25332 20.1073 4.49987 20.0999 3.92097 19.6796C3.34143 19.2588 3.10089 18.544 3.3082 17.8583L4.83666 12.8008C4.86927 12.6929 4.83131 12.5743 4.74199 12.5054L0.646497 9.3447C0.0765717 8.90489 -0.14097 8.17838 0.0923241 7.49409C0.325146 6.81169 0.939178 6.37062 1.65702 6.37062H6.76886C6.89031 6.37062 6.99192 6.30226 7.02799 6.19656L8.75447 1.123C8.98697 0.440597 9.60242 0 10.3226 0C11.0428 0 11.6581 0.440597 11.8906 1.12268L13.6173 6.19656C13.6532 6.30242 13.7549 6.37062 13.8764 6.37062H18.9906C19.7083 6.37062 20.3222 6.81154 20.5548 7.49378C20.7881 8.17807 20.5706 8.90426 20.0006 9.34391L15.9033 12.5054C15.8139 12.5744 15.776 12.693 15.8086 12.8008L15.9428 13.2452C16.0717 13.6714 15.8305 14.1215 15.4041 14.2503C14.978 14.379 14.5278 14.138 14.3989 13.7118L14.2647 13.2675C14.0397 12.5231 14.3022 11.7036 14.9179 11.2285L19.0155 8.06701C19.0338 8.05283 19.0336 8.04937 19.0328 8.03598C19.0311 8.0103 19.0166 7.98919 19.0108 7.98573C19.0108 7.98573 19.0052 7.98352 18.9906 7.98352H13.8764C13.0661 7.98352 12.3484 7.47424 12.0904 6.71623L10.3639 1.64251C10.3567 1.62156 10.3537 1.61274 10.3226 1.61274C10.2914 1.61274 10.2884 1.62156 10.2812 1.64283L8.55488 6.71608C8.29686 7.47424 7.57917 7.98352 6.76886 7.98352H1.65702C1.64221 7.98352 1.6367 7.98573 1.6367 7.98573C1.63087 7.98904 1.61638 8.00999 1.61449 8.03582C1.61354 8.04984 1.61323 8.05346 1.63182 8.06796L5.72731 11.2285C6.34307 11.7038 6.60551 12.5231 6.38056 13.2674L4.85194 18.3249C4.84564 18.346 4.84265 18.3556 4.86848 18.3743C4.89337 18.3925 4.90077 18.3873 4.91857 18.3748L9.24421 15.3618C9.88928 14.9126 10.756 14.9126 11.4009 15.3618L15.7265 18.375C15.7443 18.3873 15.7517 18.3926 15.7766 18.3743C15.8024 18.3556 15.7995 18.346 15.7932 18.3249L15.5687 17.5825C15.4398 17.156 15.681 16.706 16.1074 16.5771C16.5335 16.4484 16.9837 16.6895 17.1126 17.1159L17.3369 17.8583C17.5442 18.544 17.3037 19.2588 16.7241 19.6796C16.4302 19.893 16.091 20 15.7517 20V20Z" fill="#7156FB"/>
</svg>
