<svg width="21" height="20" viewBox="0 0 21 20" fill="none" xmlns="http://www.w3.org/2000/svg">
<path d="M20.8156 7.55686C20.6782 7.13427 20.3033 6.83508 19.8616 6.79511L13.837 6.24816L11.4561 0.673859C11.2803 0.264321 10.8803 0 10.4351 0C9.9899 0 9.58976 0.264321 9.41508 0.673859L7.03413 6.24816L1.00857 6.79511C0.566869 6.83587 0.192839 7.13507 0.0546283 7.55686C-0.0827866 7.97946 0.0441191 8.44298 0.378182 8.73596L4.9323 12.7293L3.58952 18.6434C3.49127 19.0782 3.66006 19.5279 4.02087 19.7887C4.21481 19.9296 4.44267 20 4.67132 20C4.86781 20 5.06446 19.9478 5.24009 19.8427L10.4351 16.7364L15.6292 19.8427C16.0102 20.0704 16.4893 20.0495 16.8493 19.7887C17.2102 19.5279 17.3789 19.0782 17.2807 18.6434L15.9379 12.7293L20.492 8.73596C20.8259 8.44298 20.953 7.98041 20.8156 7.55686V7.55686Z" fill="#F57D00"/>
</svg>
