<svg width="22" height="21" viewBox="0 0 22 21" fill="none" xmlns="http://www.w3.org/2000/svg">
<path d="M12.1788 20.0072C11.8191 20.0072 11.5276 19.7156 11.5276 19.3559C11.5276 16.8062 9.45322 14.7318 6.90351 14.7318H5.9266C3.37689 14.7318 1.30255 16.8062 1.30255 19.3559C1.30255 19.7156 1.01097 20.0072 0.651275 20.0072C0.291576 20.0072 0 19.7156 0 19.3559C0 16.088 2.65867 13.4293 5.9266 13.4293H6.90351C10.1714 13.4293 12.8301 16.088 12.8301 19.3559C12.8301 19.7156 12.5385 20.0072 12.1788 20.0072Z" fill="#7156FB"/>
<path d="M6.34996 12.1267C3.92595 12.1267 1.95386 10.1547 1.95386 7.73064C1.95386 5.30663 3.92595 3.33453 6.34996 3.33453C8.77398 3.33453 10.7461 5.30663 10.7461 7.73064C10.7461 10.1547 8.77398 12.1267 6.34996 12.1267ZM6.34996 4.63708C4.64418 4.63708 3.25641 6.02485 3.25641 7.73064C3.25641 9.43643 4.64418 10.8242 6.34996 10.8242C8.05575 10.8242 9.44352 9.43643 9.44352 7.73064C9.44352 6.02485 8.05575 4.63708 6.34996 4.63708Z" fill="#7156FB"/>
<path d="M20.6974 16.0214C20.6974 16.3811 20.989 16.6726 21.3487 16.6726C21.7084 16.6726 22 16.3811 22 16.0214C22 12.7534 19.3413 10.0948 16.0734 10.0948H15.0965C12.3224 10.0948 9.98739 12.0106 9.34497 14.5886L10.5313 15.2829C10.8859 13.0829 12.7981 11.3973 15.0965 11.3973H16.0734C18.6231 11.3973 20.6974 13.4716 20.6974 16.0214Z" fill="#7156FB"/>
<path d="M15.5199 8.79221C13.0959 8.79221 11.1238 6.82012 11.1238 4.39611C11.1238 1.97209 13.0959 0 15.5199 0C17.9439 0 19.916 1.97209 19.916 4.39611C19.916 6.82012 17.9439 8.79221 15.5199 8.79221ZM15.5199 1.30255C13.8141 1.30255 12.4263 2.69032 12.4263 4.39611C12.4263 6.10189 13.8141 7.48966 15.5199 7.48966C17.2257 7.48966 18.6134 6.10189 18.6134 4.39611C18.6134 2.69032 17.2257 1.30255 15.5199 1.30255Z" fill="#7156FB"/>
</svg>
