<svg width="20" height="20" viewBox="0 0 20 20" fill="none" xmlns="http://www.w3.org/2000/svg">
<path d="M9.16675 15C9.16675 15.46 9.54008 15.8333 10.0001 15.8333C10.4601 15.8333 10.8334 15.46 10.8334 15V4.99999C10.8334 4.53999 10.4601 4.16666 10.0001 4.16666C9.54008 4.16666 9.16675 4.53999 9.16675 4.99999V15Z" fill="#7156FB"/>
<path d="M0.833333 5C0.373332 5 0 5.37333 0 5.83333V14.1667C0 14.6267 0.373332 15 0.833333 15C1.29333 15 1.66667 14.6267 1.66667 14.1667V5.83333C1.66667 5.37333 1.29333 5 0.833333 5Z" fill="#7156FB"/>
<path d="M7.91667 13.3333V6.66668C7.91667 6.20668 7.54333 5.83334 7.08333 5.83334C6.62333 5.83334 6.25 6.20668 6.25 6.66668V13.3333C6.25 13.7933 6.62333 14.1667 7.08333 14.1667C7.54333 14.1667 7.91667 13.7933 7.91667 13.3333Z" fill="#7156FB"/>
<path d="M4.16659 12.5C4.62659 12.5 4.99992 12.1267 4.99992 11.6667V8.33333C4.99992 7.87333 4.62659 7.5 4.16659 7.5C3.70658 7.5 3.33325 7.87333 3.33325 8.33333V11.6667C3.33325 12.1267 3.70658 12.5 4.16659 12.5Z" fill="#7156FB"/>
<path d="M13.7499 13.3333V6.66668C13.7499 6.20668 13.3766 5.83334 12.9166 5.83334C12.4566 5.83334 12.0833 6.20668 12.0833 6.66668V13.3333C12.0833 13.7933 12.4566 14.1667 12.9166 14.1667C13.3766 14.1667 13.7499 13.7933 13.7499 13.3333Z" fill="#7156FB"/>
<path d="M19.1666 5C18.7066 5 18.3333 5.37333 18.3333 5.83333V14.1667C18.3333 14.6267 18.7066 15 19.1666 15C19.6266 15 19.9999 14.6267 19.9999 14.1667V5.83333C19.9999 5.37333 19.6266 5 19.1666 5Z" fill="#7156FB"/>
<path d="M15.8333 7.5C15.3733 7.5 15 7.87333 15 8.33333V11.6667C15 12.1267 15.3733 12.5 15.8333 12.5C16.2933 12.5 16.6667 12.1267 16.6667 11.6667V8.33333C16.6667 7.87333 16.2933 7.5 15.8333 7.5Z" fill="#7156FB"/>
<path d="M9.16675 19.1667C9.16675 19.6267 9.54008 20 10.0001 20C10.4601 20 10.8334 19.6267 10.8334 19.1667V18.3333C10.8334 17.8733 10.4601 17.5 10.0001 17.5C9.54008 17.5 9.16675 17.8733 9.16675 18.3333V19.1667Z" fill="#7156FB"/>
<path d="M10.0001 2.5C10.4601 2.5 10.8334 2.12667 10.8334 1.66667V0.833333C10.8334 0.373332 10.4601 0 10.0001 0C9.54008 0 9.16675 0.373332 9.16675 0.833333V1.66667C9.16675 2.12667 9.54008 2.5 10.0001 2.5Z" fill="#7156FB"/>
</svg>
