<svg width="20" height="20" viewBox="0 0 20 20" fill="none" xmlns="http://www.w3.org/2000/svg">
<path d="M19.2188 13.7521C19.6502 13.7521 20 13.4023 20 12.9708V3.125C20 1.40188 18.5981 0 16.875 0H3.125C1.40188 0 0 1.40188 0 3.125V16.875C0 18.5981 1.40188 20 3.125 20H16.875C18.5981 20 20 18.5981 20 16.875C20 16.4435 19.6502 16.0938 19.2188 16.0938C18.7873 16.0938 18.4375 16.4435 18.4375 16.875C18.4375 17.7366 17.7366 18.4375 16.875 18.4375H3.125C2.26344 18.4375 1.5625 17.7366 1.5625 16.875V3.125C1.5625 2.26344 2.26344 1.5625 3.125 1.5625H16.875C17.7366 1.5625 18.4375 2.26344 18.4375 3.125V12.9708C18.4375 13.4023 18.7873 13.7521 19.2188 13.7521Z" fill="#7156FB"/>
<path d="M16.875 10C16.875 9.56852 16.5252 9.21875 16.0938 9.21875H3.94531C3.51383 9.21875 3.16406 9.56852 3.16406 10C3.16406 10.4315 3.51383 10.7812 3.94531 10.7812H16.0938C16.5252 10.7812 16.875 10.4315 16.875 10Z" fill="#7156FB"/>
<path d="M3.94531 12.3438C3.51383 12.3438 3.16406 12.6935 3.16406 13.125C3.16406 13.5565 3.51383 13.9062 3.94531 13.9062H11.25C11.6815 13.9062 12.0312 13.5565 12.0312 13.125C12.0312 12.6935 11.6815 12.3438 11.25 12.3438H3.94531Z" fill="#7156FB"/>
<path d="M3.94531 7.65625H12.8125C13.244 7.65625 13.5938 7.30648 13.5938 6.875C13.5938 6.44352 13.244 6.09375 12.8125 6.09375H3.94531C3.51383 6.09375 3.16406 6.44352 3.16406 6.875C3.16406 7.30648 3.51383 7.65625 3.94531 7.65625Z" fill="#7156FB"/>
</svg>
