<svg width="11" height="14" viewBox="0 0 11 14" fill="none" xmlns="http://www.w3.org/2000/svg">
<path d="M5.55147 0C2.75571 0 0.481201 2.27451 0.481201 5.07024C0.481201 8.53984 5.01859 13.6334 5.21178 13.8486C5.39323 14.0506 5.71004 14.0503 5.89116 13.8486C6.08434 13.6334 10.6217 8.53984 10.6217 5.07024C10.6217 2.27451 8.34719 0 5.55147 0ZM5.55147 7.62122C4.14485 7.62122 3.00052 6.47686 3.00052 5.07024C3.00052 3.66362 4.14488 2.51929 5.55147 2.51929C6.95808 2.51929 8.10243 3.66365 8.10243 5.07027C8.10243 6.47689 6.95808 7.62122 5.55147 7.62122Z" fill="#CCCCCC"/>
</svg>
