<svg width="18" height="20" viewBox="0 0 18 20" fill="none" xmlns="http://www.w3.org/2000/svg">
<path d="M3.35814 20C1.50646 20 0 18.4936 0 16.6419C0 14.7902 1.50646 13.2838 3.35814 13.2838C3.75606 13.2838 4.0788 13.6065 4.0788 14.0044C4.0788 14.4024 3.75606 14.7251 3.35814 14.7251C2.3012 14.7251 1.44131 15.585 1.44131 16.6419C1.44131 17.6989 2.3012 18.5587 3.35814 18.5587C4.41503 18.5587 5.27485 17.6988 5.27485 16.6419L5.27226 3.11215C5.2722 2.77408 5.50714 2.48144 5.8372 2.40839L16.6436 0.017024C16.8569 -0.0301934 17.0805 0.0219821 17.2509 0.158964C17.4212 0.295889 17.5202 0.502861 17.52 0.721479L17.5054 13.8278C17.5054 15.6787 15.9988 17.185 14.1473 17.185C12.2956 17.185 10.7891 15.6786 10.7891 13.8269C10.7891 11.9752 12.2956 10.4688 14.1473 10.4688C14.5453 10.4688 14.868 10.7915 14.868 11.1894C14.868 11.5875 14.5453 11.9101 14.1473 11.9101C13.0903 11.9101 12.2305 12.77 12.2305 13.8269C12.2305 14.8839 13.0903 15.7437 14.1473 15.7437C15.2042 15.7437 16.0641 14.8838 16.0641 13.8269L16.0775 1.61844L6.71363 3.69064L6.71605 16.6418C6.71611 18.4936 5.20976 20 3.35814 20Z" fill="#7156FB"/>
</svg>
