<svg width="15" height="15" viewBox="0 0 15 15" fill="none" xmlns="http://www.w3.org/2000/svg">
<path d="M6.17693 12.3538C2.77095 12.3538 0 9.5829 0 6.17692C0 2.77095 2.77095 0 6.17693 0C9.5829 0 12.3539 2.77095 12.3539 6.17692C12.3539 9.5829 9.5829 12.3538 6.17693 12.3538V12.3538ZM6.17693 1.17098C3.41663 1.17098 1.17098 3.41663 1.17098 6.17692C1.17098 8.93722 3.41663 11.1829 6.17693 11.1829C8.93722 11.1829 11.1829 8.93722 11.1829 6.17692C11.1829 3.41663 8.93722 1.17098 6.17693 1.17098V1.17098ZM14.8171 14.8285C15.0457 14.5999 15.0457 14.2291 14.8171 14.0005L12.197 11.3804C11.9684 11.1518 11.5976 11.1518 11.369 11.3804C11.1404 11.6091 11.1404 11.9798 11.369 12.2085L13.9891 14.8285C14.1034 14.9429 14.2532 15 14.4031 15C14.553 15 14.7028 14.9429 14.8171 14.8285V14.8285Z" fill="#7156FB"/>
</svg>
